HIERARCHY
ROOT joint_0
{
	OFFSET 0.000000 0.000000 0.000000
	CHANNELS 6 Xposition Yposition Zposition Zrotation Yrotation Xrotation 
	JOINT joint_1
	{
		OFFSET 11.612000 -0.419000 106.198000
		CHANNELS 3 Zrotation Yrotation Xrotation
		JOINT joint_2
		{
			OFFSET -1.708000 -1.022000 97.564090
			CHANNELS 3 Zrotation Yrotation Xrotation
			JOINT joint_3
			{
				OFFSET -4.121000 -1.538000 97.375000
				CHANNELS 3 Zrotation Yrotation Xrotation
				JOINT joint_4
				{
					OFFSET 5.442000 -2.123000 132.795900
					CHANNELS 3 Zrotation Yrotation Xrotation
					JOINT joint_5
					{
						OFFSET 21.935000 0.195000 82.975100
						CHANNELS 3 Zrotation Yrotation Xrotation
						End Site
						{
							OFFSET 0.000000 0.000000 0.000000
						}
					}
				}
				JOINT joint_6
				{
					OFFSET 4.262000 -30.048000 73.899900
					CHANNELS 3 Zrotation Yrotation Xrotation
					JOINT joint_7
					{
						OFFSET 9.731000 -136.810010 -21.963010
						CHANNELS 3 Zrotation Yrotation Xrotation
						JOINT joint_8
						{
							OFFSET 33.360000 -35.709000 -267.597900
							CHANNELS 3 Zrotation Yrotation Xrotation
							JOINT joint_9
							{
								OFFSET 36.156000 -29.759000 -240.558040
								CHANNELS 3 Zrotation Yrotation Xrotation
								End Site
								{
									OFFSET 0.000000 0.000000 0.000000
								}
							}
						}
					}
				}
				JOINT joint_10
				{
					OFFSET 2.027000 27.734000 74.914920
					CHANNELS 3 Zrotation Yrotation Xrotation
					JOINT joint_11
					{
						OFFSET -5.183000 136.784000 -23.604980
						CHANNELS 3 Zrotation Yrotation Xrotation
						JOINT joint_12
						{
							OFFSET 29.806000 37.229000 -267.809940
							CHANNELS 3 Zrotation Yrotation Xrotation
							JOINT joint_13
							{
								OFFSET 36.890000 46.524990 -237.772030
								CHANNELS 3 Zrotation Yrotation Xrotation
								End Site
								{
									OFFSET 0.000000 0.000000 0.000000
								}
							}
						}
					}
				}
			}
		}
	}
	JOINT joint_14
	{
		OFFSET -7.290000 -102.873990 -124.314940
		CHANNELS 3 Zrotation Yrotation Xrotation
		JOINT joint_15
		{
			OFFSET -15.466000 -19.909010 -438.533020
			CHANNELS 3 Zrotation Yrotation Xrotation
			JOINT joint_16
			{
				OFFSET -26.899000 -18.922000 -464.797000
				CHANNELS 3 Zrotation Yrotation Xrotation
				JOINT joint_17
				{
					OFFSET 179.329000 -12.011000 -84.174000
					CHANNELS 3 Zrotation Yrotation Xrotation
					End Site
					{
						OFFSET 0.000000 0.000000 0.000000
					}
				}
			}
		}
	}
	JOINT joint_18
	{
		OFFSET -6.225000 101.546000 -125.479980
		CHANNELS 3 Zrotation Yrotation Xrotation
		JOINT joint_19
		{
			OFFSET -13.973000 7.996000 -438.963010
			CHANNELS 3 Zrotation Yrotation Xrotation
			JOINT joint_20
			{
				OFFSET -44.294000 5.716000 -463.813970
				CHANNELS 3 Zrotation Yrotation Xrotation
				JOINT joint_21
				{
					OFFSET 178.505000 -4.689000 -85.139000
					CHANNELS 3 Zrotation Yrotation Xrotation
					End Site
					{
						OFFSET 0.000000 0.000000 0.000000
					}
				}
			}
		}
	}
}
MOTION
Frames: 12
Frame Time: 0.016667
7.655000 -98.648000 1127.672970 0.011453 -4.808980 0.396325 -1.027388 7.439984 -0.618555 -1.125035 -1.528851 0.104802 -1.087133 1.485881 -0.093539 -0.239011 -3.139163 0.960335 0.000000 0.000000 0.000000 -0.668921 0.002863 3.711460 -0.468524 -0.727357 -6.094275 2.048430 -8.113935 6.292036 0.000000 0.000000 0.000000 -2.735066 0.301405 1.371890 -0.266623 0.685426 0.259966 -1.712333 -4.377115 -6.354546 0.000000 0.000000 0.000000 1.369279 1.437038 -0.253942 1.314307 2.849304 -0.478771 1.434763 -1.460728 0.573663 0.000000 0.000000 0.000000 1.456205 2.663258 -0.343435 1.389564 -1.326411 -0.422069 1.326831 2.036564 0.684029 0.000000 0.000000 0.000000 
9.163000 -99.258000 1127.620000 0.161029 -4.666579 0.398429 -1.042321 7.410674 -0.701229 -1.136236 -1.509298 0.136211 -1.101310 1.471399 -0.114815 -0.242063 -3.199243 0.968528 0.000000 0.000000 0.000000 -0.805560 0.121961 3.728809 -0.458539 -0.593269 -5.555194 1.895687 -8.353707 5.104990 0.000000 0.000000 0.000000 -2.543719 0.191124 1.169506 -0.271569 0.548486 0.260313 -1.574468 -4.312008 -5.329190 0.000000 0.000000 0.000000 1.311956 1.411666 -0.198508 1.261831 2.794244 -0.531015 1.378544 -1.463296 0.547298 0.000000 0.000000 0.000000 1.400804 2.587299 -0.320942 1.335288 -1.343483 -0.411665 1.275505 1.978458 0.658228 0.000000 0.000000 0.000000 
10.942000 -99.892000 1127.698970 0.302490 -4.492681 0.395833 -1.050779 7.381379 -0.778676 -1.140398 -1.472384 0.173073 -1.109243 1.435539 -0.140436 -0.251817 -3.235006 1.004825 0.000000 0.000000 0.000000 -0.907145 0.281412 3.547560 -0.411235 -0.379358 -4.651683 1.740912 -8.428027 4.054093 0.000000 0.000000 0.000000 -2.551884 0.108469 1.154379 -0.276695 0.456598 -0.007102 -1.360426 -3.913625 -4.249609 0.000000 0.000000 0.000000 1.258647 1.406513 -0.117366 1.220142 2.663047 -0.625255 1.326158 -1.444159 0.524210 0.000000 0.000000 0.000000 1.349800 2.507712 -0.291136 1.285073 -1.387190 -0.394499 1.229008 1.911647 0.634496 0.000000 0.000000 0.000000 
12.893000 -100.426000 1127.915040 0.417556 -4.288842 0.387393 -1.064084 7.341498 -0.859676 -1.149416 -1.441194 0.204414 -1.121430 1.403057 -0.162047 -0.269446 -3.266406 1.072311 0.000000 0.000000 0.000000 -0.964322 0.369967 3.360799 -0.352481 -0.236240 -3.819818 1.626441 -8.459928 3.292421 0.000000 0.000000 0.000000 -2.626270 0.066623 1.226572 -0.282965 0.409703 -0.378072 -1.157421 -3.537019 -3.275447 0.000000 0.000000 0.000000 1.213901 1.379705 -0.044045 1.186082 2.510976 -0.700138 1.278662 -1.362112 0.507612 0.000000 0.000000 0.000000 1.309868 2.413272 -0.255204 1.246368 -1.450701 -0.387106 1.193429 1.900096 0.617416 0.000000 0.000000 0.000000 
14.952000 -100.743000 1128.301030 0.490078 -4.049399 0.366938 -1.094459 7.269119 -0.955246 -1.175708 -1.428195 0.215493 -1.148713 1.387795 -0.166409 -0.299347 -3.288102 1.187796 0.000000 0.000000 0.000000 -0.953921 0.284406 3.273423 -0.296143 -0.287581 -3.326219 1.577840 -8.499039 2.942394 0.000000 0.000000 0.000000 -2.691598 0.094583 1.362059 -0.302069 0.423242 -0.836579 -1.022980 -3.415810 -2.487819 0.000000 0.000000 0.000000 1.182325 1.298456 0.001313 1.159281 2.365468 -0.711713 1.237191 -1.167266 0.501363 0.000000 0.000000 0.000000 1.285248 2.298453 -0.206424 1.223970 -1.549329 -0.406896 1.172598 2.010921 0.610583 0.000000 0.000000 0.000000 
17.156000 -100.890000 1128.854980 0.526940 -3.773779 0.334580 -1.136782 7.166541 -1.063331 -1.213869 -1.424321 0.213123 -1.186380 1.382010 -0.158343 -0.341302 -3.293661 1.351237 0.000000 0.000000 0.000000 -0.882734 0.066891 3.212104 -0.233075 -0.476626 -3.003822 1.576897 -8.496767 2.938571 0.000000 0.000000 0.000000 -2.799679 0.184733 1.597523 -0.335502 0.494673 -1.444905 -0.924322 -3.407509 -1.820923 0.000000 0.000000 0.000000 1.161953 1.179015 0.031476 1.140731 2.204903 -0.682996 1.201073 -0.873435 0.504240 0.000000 0.000000 0.000000 1.273591 2.167499 -0.144358 1.215225 -1.685809 -0.447346 1.164426 2.220448 0.612385 0.000000 0.000000 0.000000 
19.513000 -101.018000 1129.453980 0.544876 -3.489065 0.313563 -1.175200 7.095480 -1.154761 -1.249076 -1.425579 0.209470 -1.220977 1.379911 -0.151304 -0.377020 -3.358885 1.491999 0.000000 0.000000 0.000000 -0.806198 -0.144177 3.173912 -0.181665 -0.670427 -2.854206 1.637229 -8.610654 3.231852 0.000000 0.000000 0.000000 -2.875996 0.260919 1.781961 -0.358144 0.558924 -1.832159 -0.883042 -3.492880 -1.435690 0.000000 0.000000 0.000000 1.147076 1.043133 0.036221 1.124154 2.067859 -0.629914 1.169579 -0.586666 0.508800 0.000000 0.000000 0.000000 1.276066 2.012581 -0.101651 1.221128 -1.776618 -0.482864 1.170023 2.421850 0.620537 0.000000 0.000000 0.000000 
21.905000 -101.232000 1130.017940 0.547871 -3.232568 0.325747 -1.193779 7.109585 -1.219291 -1.265948 -1.427258 0.222843 -1.238658 1.381822 -0.158388 -0.391988 -3.535441 1.553294 0.000000 0.000000 0.000000 -0.752375 -0.264318 3.172912 -0.156536 -0.789916 -2.913445 1.783066 -9.006132 3.837675 0.000000 0.000000 0.000000 -2.854593 0.249049 1.781807 -0.350217 0.550830 -1.671100 -0.921360 -3.658194 -1.493516 0.000000 0.000000 0.000000 1.138293 0.906328 -0.001945 1.108122 2.003677 -0.555588 1.146623 -0.384398 0.511684 0.000000 0.000000 0.000000 1.300347 1.830180 -0.112146 1.249079 -1.740749 -0.489681 1.196727 2.540067 0.636547 0.000000 0.000000 0.000000 
24.326000 -101.476000 1130.593020 0.528969 -2.995153 0.362560 -1.198821 7.187240 -1.268089 -1.270435 -1.428970 0.247807 -1.244949 1.385731 -0.174890 -0.393243 -3.793464 1.562000 0.000000 0.000000 0.000000 -0.696094 -0.345149 3.214029 -0.151894 -0.884083 -3.181415 2.008054 -9.626021 4.768139 0.000000 0.000000 0.000000 -2.761776 0.177759 1.655134 -0.320787 0.494563 -1.103070 -1.030121 -3.906639 -1.932498 0.000000 0.000000 0.000000 1.137633 0.761627 -0.079756 1.094959 1.997262 -0.453775 1.132412 -0.226440 0.515682 0.000000 0.000000 0.000000 1.346259 1.624303 -0.164655 1.298901 -1.609448 -0.476115 1.244424 2.615820 0.661443 0.000000 0.000000 0.000000 
27.344000 -101.720000 1131.182010 0.525343 -2.683834 0.394521 -1.212691 7.249877 -1.273885 -1.284304 -1.432198 0.258331 -1.259563 1.390695 -0.182195 -0.389624 -4.147570 1.555339 0.000000 0.000000 0.000000 -0.695872 -0.365584 3.235177 -0.159329 -0.929731 -3.535669 2.249407 -10.219203 5.819668 0.000000 0.000000 0.000000 -2.699923 0.163754 1.561861 -0.285803 0.501943 -0.502154 -1.181670 -4.300840 -2.500400 0.000000 0.000000 0.000000 1.126222 0.597647 -0.149613 1.072768 1.944172 -0.356877 1.107581 -0.078961 0.514024 0.000000 0.000000 0.000000 1.381643 1.382609 -0.201222 1.339442 -1.501792 -0.479809 1.281826 2.673452 0.680992 0.000000 0.000000 0.000000 
31.168000 -101.950000 1131.788940 0.571502 -2.253650 0.397066 -1.251398 7.255911 -1.205569 -1.323366 -1.430876 0.237231 -1.297209 1.390130 -0.169143 -0.388437 -4.583179 1.562945 0.000000 0.000000 0.000000 -0.829643 -0.323241 3.216640 -0.171077 -0.935702 -3.956388 2.473470 -10.553214 6.941578 0.000000 0.000000 0.000000 -2.729010 0.269483 1.599646 -0.255325 0.632247 -0.086635 -1.362001 -4.903380 -3.039767 0.000000 0.000000 0.000000 1.083039 0.427562 -0.167083 1.027749 1.754581 -0.295692 1.051306 0.100117 0.499768 0.000000 0.000000 0.000000 1.379122 1.101464 -0.174137 1.344355 -1.491166 -0.529063 1.282404 2.735322 0.683135 0.000000 0.000000 0.000000 
35.575000 -102.175000 1132.412960 0.652453 -1.741060 0.381502 -1.305335 7.235977 -1.071644 -1.378312 -1.421388 0.191747 -1.349251 1.378113 -0.139894 -0.385340 -5.088749 1.567218 0.000000 0.000000 0.000000 -1.076656 -0.228112 3.192953 -0.188754 -0.915370 -4.506519 2.705773 -10.713156 8.215356 0.000000 0.000000 0.000000 -2.811121 0.451396 1.699586 -0.217462 0.845552 0.289050 -1.577296 -5.694795 -3.640981 0.000000 0.000000 0.000000 1.015546 0.256441 -0.149483 0.964767 1.467617 -0.257656 0.971156 0.303243 0.475916 0.000000 0.000000 0.000000 1.351555 0.786736 -0.104471 1.326133 -1.533255 -0.610411 1.258684 2.795629 0.673649 0.000000 0.000000 0.000000 
